<svg xmlns="http://www.w3.org/2000/svg" class="icon" style="width: 128px; height: 128px; vertical-align: middle; fill: currentcolor; overflow: hidden;" viewBox="0 0 1024 1024" version="1.1"><path d="M160 0h512l256 256v704A64 64 0 0 1 864 1024H160A64 64 0 0 1 96 960v-896A64 64 0 0 1 160 0z" fill="#4876F9"/><path d="M472.1152 471.04a116.2752 116.2752 0 0 1 51.2 11.52 118.3744 118.3744 0 0 1 55.5008 55.7056 37.888 37.888 0 0 1-27.8528 11.52 41.8304 41.8304 0 0 1-11.52-1.6896 80.64 80.64 0 0 0-26.2144-26.2144 78.848 78.848 0 0 0-96.768 11.5712l-59.0848 59.136a77.9264 77.9264 0 0 0-17.2544 25.856 78.592 78.592 0 0 0 0 59.6992 79.5648 79.5648 0 0 0 43.1104 43.0592 78.592 78.592 0 0 0 59.6992 0 77.4144 77.4144 0 0 0 25.6-17.2544l41.3696-41.3696a154.368 154.368 0 0 0 40.96 5.376c2.2528 0 5.4272 0 9.5232-0.256q-2.304 2.56-4.7616 5.12l-58.9824 59.0336a115.456 115.456 0 0 1-38.7584 25.9072 118.4256 118.4256 0 0 1-89.6512 0 118.9376 118.9376 0 0 1-64.6144-64.4608 119.2448 119.2448 0 0 1 0-89.7024 116.5312 116.5312 0 0 1 25.856-38.7072l59.0848-59.1872c1.1264-1.1264 2.8672-2.7136 5.12-4.8128a116.3776 116.3776 0 0 1 36.7616-22.2208A119.6032 119.6032 0 0 1 472.1152 471.04z m137.8816-137.8304a118.8352 118.8352 0 0 1 44.8512 8.7552 119.0912 119.0912 0 0 1 64.6144 64.5632 119.1424 119.1424 0 0 1 0 89.6512 115.6096 115.6096 0 0 1-25.6 38.7072L634.4704 593.92c-1.1264 1.1264-2.8672 2.7136-5.12 4.7616a114.5344 114.5344 0 0 1-36.7104 22.3232 118.272 118.272 0 0 1-148.48-59.5968 37.7344 37.7344 0 0 1 27.8528-11.52 40.96 40.96 0 0 1 11.52 1.6896 80.0256 80.0256 0 0 0 26.1632 26.2144A78.7968 78.7968 0 0 0 580.608 583.68a76.8 76.8 0 0 0 25.6-17.2032L665.5488 506.88a76.1344 76.1344 0 0 0 17.2544-25.6 78.4896 78.4896 0 0 0 0-59.648 79.5648 79.5648 0 0 0-43.0592-43.1104 79.2576 79.2576 0 0 0-59.6992 0 77.4144 77.4144 0 0 0-25.856 17.2544l-41.4208 41.3184a154.7776 154.7776 0 0 0-40.96-5.376q-3.3792 0-9.5232 0.3072c1.5872-1.7408 3.1232-3.4304 4.8128-5.12l59.2384-59.0848a117.76 117.76 0 0 1 83.6608-34.6112z" fill="#FFFFFF"/><path d="M672 0l256 256H736a64 64 0 0 1-64-64z" fill="#B5C8FC"/></svg>